<svg xmlns="http://www.w3.org/2000/svg" width="301" height="301" viewBox="0 0 301 301"><circle cx="150.5" cy="75.5" r="15" fill="#fff" stroke="#231f20" stroke-miterlimit="10"/><circle cx="150.5" cy="225.5" r="15" fill="#fff" stroke="#231f20" stroke-miterlimit="10"/><path d="M150.5.5a150,150,0,0,0,0,300,75,75,0,0,1,0-150,75,75,0,0,0,0-150Zm0,90a15,15,0,1,1,15-15A15,15,0,0,1,150.5,90.5Z" fill="#fff" stroke="#231f20" stroke-miterlimit="10"/><circle cx="150.5" cy="75.5" r="15" fill="#fff" stroke="#231f20" stroke-miterlimit="10"/><path d="M150.5.5a75,75,0,0,1,0,150,75,75,0,0,0,0,150,150,150,0,0,0,0-300Zm-15,225a15,15,0,1,1,15,15A15,15,0,0,1,135.5,225.5Z" fill="#231f20" stroke="#231f20" stroke-miterlimit="10"/><circle cx="150.5" cy="225.5" r="15" fill="#fff" stroke="#231f20" stroke-miterlimit="10"/><circle cx="150.5" cy="75.5" r="15" fill="#231f20" stroke="#231f20" stroke-miterlimit="10"/><circle cx="150.5" cy="225.5" r="15" fill="#fff" stroke="#231f20" stroke-miterlimit="10"/></svg>